<?xml version="1.0" standalone="no"?>
<!DOCTYPE svg PUBLIC "-//W3C//DTD SVG 20010904//EN"
 "http://www.w3.org/TR/2001/REC-SVG-20010904/DTD/svg10.dtd">
<svg version="1.0" xmlns="http://www.w3.org/2000/svg"
 width="1280.000000pt" height="1280.000000pt" viewBox="0 0 1280.000000 1280.000000"
 preserveAspectRatio="xMidYMid meet">
<metadata>
Created by potrace 1.14, written by Peter Selinger 2001-2017
</metadata>
<g transform="translate(0.000000,1280.000000) scale(0.100000,-0.100000)"
fill="#000000" stroke="none">
<path d="M2156 12793 c-4 -4 -17 -8 -29 -8 -12 -1 -47 -5 -77 -10 -30 -5 -63
-10 -72 -11 -10 -1 -19 -2 -20 -4 -2 -1 -12 -3 -23 -5 -11 -2 -33 -6 -50 -10
-16 -4 -37 -8 -45 -10 -8 -2 -15 -4 -15 -5 0 -1 -11 -3 -24 -6 -49 -9 -136
-37 -150 -48 -8 -6 -15 -9 -15 -6 -1 6 -156 -50 -182 -67 -11 -7 -24 -10 -27
-6 -4 3 -7 1 -7 -5 0 -7 -5 -12 -11 -12 -15 0 -171 -79 -227 -114 -23 -14 -44
-26 -48 -26 -5 0 -28 -17 -81 -60 -7 -6 -16 -10 -21 -10 -5 0 -17 -9 -27 -20
-10 -11 -20 -18 -22 -16 -2 2 -21 -11 -41 -30 -20 -19 -40 -34 -44 -34 -12 0
-87 -69 -216 -200 -150 -152 -152 -155 -152 -165 0 -4 -8 -15 -18 -24 -10 -9
-34 -38 -53 -66 -18 -27 -38 -55 -44 -62 -26 -32 -31 -40 -67 -105 -7 -13 -16
-25 -19 -28 -9 -7 -52 -94 -50 -99 2 -2 -2 -7 -7 -10 -8 -5 -84 -154 -87 -171
-1 -3 -9 -22 -18 -44 -9 -21 -17 -40 -17 -42 0 -1 -5 -15 -11 -31 -6 -15 -10
-29 -10 -30 0 -2 -8 -23 -19 -48 -11 -25 -20 -47 -20 -50 0 -3 0 -6 -1 -7 0
-2 -2 -10 -4 -18 -10 -39 -15 -58 -24 -89 -6 -19 -8 -38 -5 -42 3 -5 1 -9 -4
-9 -5 0 -9 -6 -9 -12 -1 -15 -12 -76 -18 -98 -2 -8 -7 -33 -12 -55 -10 -50
-11 -8687 0 -8737 4 -21 10 -55 13 -75 3 -21 8 -47 11 -58 4 -11 8 -26 9 -34
7 -37 27 -117 33 -126 3 -5 6 -12 7 -15 9 -52 18 -81 25 -86 5 -3 7 -10 4 -15
-4 -5 -1 -9 5 -9 6 0 9 -3 7 -7 -3 -5 0 -19 6 -33 5 -14 11 -29 13 -35 19 -60
30 -85 36 -85 5 0 8 -8 8 -17 0 -10 9 -33 20 -51 11 -18 20 -39 20 -48 0 -8 4
-12 10 -9 5 3 10 -1 10 -9 0 -21 32 -86 42 -86 5 0 7 -4 4 -8 -3 -5 5 -20 17
-33 12 -13 20 -25 18 -27 -4 -5 61 -106 71 -110 5 -2 6 -8 2 -13 -3 -5 2 -12
10 -15 9 -3 16 -12 16 -20 0 -8 5 -14 10 -14 6 0 10 -6 10 -13 0 -7 13 -26 30
-42 17 -16 30 -34 30 -40 0 -6 8 -17 17 -26 10 -8 44 -46 77 -82 72 -83 101
-111 237 -233 46 -41 161 -128 198 -150 17 -10 31 -22 31 -27 0 -4 5 -5 10 -2
6 3 13 -1 16 -9 3 -9 15 -16 25 -16 10 0 19 -4 19 -9 0 -4 21 -19 48 -32 26
-13 49 -27 52 -31 3 -4 55 -30 115 -58 61 -28 119 -55 130 -60 97 -47 313
-111 495 -148 19 -4 2008 -7 4420 -7 4232 0 4388 1 4470 19 47 10 92 20 100
21 8 2 15 4 15 5 0 1 7 3 16 5 40 8 214 67 294 100 91 37 286 132 295 144 3 3
26 17 53 31 26 13 47 28 47 32 0 5 5 8 11 8 9 0 38 19 124 82 31 23 135 107
165 133 63 55 220 217 220 226 0 5 7 9 16 9 8 0 13 4 10 8 -3 5 12 27 33 50
21 23 37 42 34 42 -2 0 8 12 22 28 14 15 28 35 31 45 3 9 10 17 15 17 5 0 9 7
9 15 0 8 5 15 10 15 6 0 10 5 10 10 0 6 9 20 20 32 10 12 17 25 14 30 -3 4 0
8 5 8 6 0 11 7 11 15 0 8 4 15 8 15 5 0 17 18 27 40 10 22 24 45 31 51 7 6 16
24 19 40 4 16 11 29 16 29 5 0 8 3 7 8 -1 4 12 36 28 72 29 61 46 98 48 110 1
3 7 15 14 28 7 12 10 22 7 22 -3 0 1 13 9 29 9 16 12 31 9 35 -4 3 0 6 7 6 7
0 11 3 8 6 -3 3 2 29 12 58 11 29 21 64 24 77 3 13 9 38 15 56 5 17 7 34 3 37
-3 3 -1 6 5 6 6 0 10 14 9 30 -1 17 1 30 4 30 3 0 6 8 7 17 2 20 10 67 21 128
10 54 9 8597 -1 8660 -4 28 -12 70 -17 95 -6 25 -12 54 -14 65 -14 73 -30 132
-38 142 -6 7 -8 20 -4 28 3 8 1 15 -5 15 -5 0 -9 6 -8 13 1 6 -1 21 -5 32 -4
11 -12 34 -18 50 -5 17 -14 39 -18 50 -8 20 -22 55 -25 65 -6 17 -28 68 -56
127 -18 37 -32 71 -31 76 1 4 -2 7 -8 7 -5 0 -10 9 -10 20 0 11 -3 20 -8 20
-4 0 -18 21 -32 48 -13 26 -27 49 -30 52 -3 3 -11 17 -19 32 -8 15 -22 37 -33
47 -10 11 -18 23 -18 27 0 13 -141 194 -200 257 -51 55 -141 145 -209 210 -17
15 -33 27 -38 27 -4 0 -14 9 -21 20 -7 11 -17 20 -23 20 -5 0 -20 11 -33 25
-13 13 -26 22 -29 18 -4 -3 -7 -1 -7 6 0 6 -11 16 -25 21 -14 5 -25 14 -25 20
0 5 -7 10 -15 10 -8 0 -15 5 -15 11 0 5 -4 8 -9 5 -5 -3 -11 1 -15 9 -3 8 -10
15 -16 15 -6 0 -38 18 -71 40 -32 23 -59 37 -59 33 0 -4 -4 -3 -8 4 -8 13
-232 123 -251 123 -6 0 -11 5 -11 11 0 5 -4 8 -8 5 -5 -3 -20 1 -35 9 -14 7
-28 11 -31 7 -3 -3 -6 1 -6 8 0 7 -3 11 -6 7 -4 -3 -19 0 -35 9 -16 8 -31 14
-34 14 -19 1 -65 14 -65 19 0 4 -14 8 -31 9 -18 1 -37 6 -43 9 -6 4 -15 8 -21
10 -5 1 -32 6 -60 12 -82 18 -128 27 -185 35 -14 2 -25 5 -25 6 0 14 -8555 27
-8569 13z"/>
</g>
</svg>
